<svg width="253" height="403" viewBox="0 0 253 403" fill="none" xmlns="http://www.w3.org/2000/svg">
<rect width="253" height="403" fill="#F5F5F5"/>
<path d="M238.499 26.0625L231.405 34.5751L242.595 37.4249L240.437 26.5561L238.499 26.0625ZM243.272 184.59C243.598 185.036 244.223 185.133 244.669 184.807L251.936 179.497C252.382 179.171 252.479 178.546 252.153 178.1C251.827 177.654 251.202 177.557 250.756 177.882L244.296 182.603L239.576 176.143C239.25 175.698 238.625 175.6 238.179 175.926C237.733 176.252 237.636 176.878 237.962 177.323L243.272 184.59ZM240.19 27.5252L246.942 1.0138L245.004 0.520199L238.252 27.0316L240.19 27.5252ZM243.239 0.458088C213.753 46.1865 200.22 72.1943 196.282 87.5643C194.31 95.2648 194.689 100.504 196.9 104.236C199.105 107.957 202.989 109.93 207.378 111.445C209.581 112.206 211.976 112.872 214.409 113.573C216.856 114.278 219.36 115.025 221.842 115.959C226.801 117.826 231.628 120.424 235.6 124.855C243.526 133.699 248.327 150.184 243.091 183.846L245.067 184.154C250.331 150.316 245.632 133.051 237.089 123.52C232.827 118.764 227.677 116.018 222.547 114.088C219.984 113.123 217.415 112.358 214.963 111.651C212.499 110.941 210.171 110.294 208.031 109.555C203.732 108.07 200.444 106.293 198.621 103.217C196.805 100.152 196.302 95.5477 198.22 88.0607C202.064 73.0557 215.406 47.3135 244.92 1.54192L243.239 0.458088Z" fill="#0A4B42" fill-opacity="0.739"/>
<path d="M0.920455 400V393.455H1.89205V394.443H1.96023C2.07955 394.119 2.29545 393.857 2.60795 393.655C2.92045 393.453 3.27273 393.352 3.66477 393.352C3.73864 393.352 3.83097 393.354 3.94176 393.357C4.05256 393.359 4.13636 393.364 4.19318 393.369V394.392C4.15909 394.384 4.08097 394.371 3.95881 394.354C3.83949 394.334 3.71307 394.324 3.57955 394.324C3.26136 394.324 2.97727 394.391 2.72727 394.524C2.48011 394.655 2.28409 394.837 2.1392 395.07C1.99716 395.3 1.92614 395.562 1.92614 395.858V400H0.920455ZM7.82812 402.591C7.34233 402.591 6.92472 402.528 6.57528 402.403C6.22585 402.281 5.93466 402.119 5.7017 401.918C5.47159 401.719 5.28835 401.506 5.15199 401.278L5.95312 400.716C6.04403 400.835 6.15909 400.972 6.2983 401.125C6.4375 401.281 6.62784 401.416 6.86932 401.53C7.11364 401.646 7.43324 401.705 7.82812 401.705C8.35653 401.705 8.79261 401.577 9.13636 401.321C9.48011 401.065 9.65199 400.665 9.65199 400.119V398.79H9.56676C9.4929 398.909 9.38778 399.057 9.25142 399.233C9.1179 399.406 8.92472 399.561 8.67188 399.697C8.42188 399.831 8.08381 399.898 7.65767 399.898C7.12926 399.898 6.65483 399.773 6.23438 399.523C5.81676 399.273 5.4858 398.909 5.24148 398.432C5 397.955 4.87926 397.375 4.87926 396.693C4.87926 396.023 4.99716 395.439 5.23295 394.942C5.46875 394.442 5.79688 394.055 6.21733 393.783C6.63778 393.507 7.12358 393.369 7.67472 393.369C8.10085 393.369 8.43892 393.44 8.68892 393.582C8.94176 393.722 9.13494 393.881 9.26847 394.06C9.40483 394.236 9.50994 394.381 9.58381 394.494H9.68608V393.455H10.6577V400.188C10.6577 400.75 10.5298 401.207 10.2741 401.56C10.0213 401.915 9.6804 402.175 9.25142 402.339C8.82528 402.507 8.35085 402.591 7.82812 402.591ZM7.79403 398.994C8.19744 398.994 8.53835 398.902 8.81676 398.717C9.09517 398.533 9.30682 398.267 9.4517 397.92C9.59659 397.574 9.66903 397.159 9.66903 396.676C9.66903 396.205 9.59801 395.788 9.45597 395.428C9.31392 395.067 9.10369 394.784 8.82528 394.58C8.54688 394.375 8.20313 394.273 7.79403 394.273C7.3679 394.273 7.01278 394.381 6.72869 394.597C6.44744 394.812 6.2358 395.102 6.09375 395.466C5.95455 395.83 5.88494 396.233 5.88494 396.676C5.88494 397.131 5.95597 397.533 6.09801 397.882C6.2429 398.229 6.45597 398.501 6.73722 398.7C7.02131 398.896 7.37358 398.994 7.79403 398.994ZM12.6349 400V391.273H13.6406V394.494H13.7259C13.7997 394.381 13.902 394.236 14.0327 394.06C14.1662 393.881 14.3565 393.722 14.6037 393.582C14.8537 393.44 15.1918 393.369 15.6179 393.369C16.169 393.369 16.6548 393.507 17.0753 393.783C17.4957 394.058 17.8239 394.449 18.0597 394.955C18.2955 395.46 18.4134 396.057 18.4134 396.744C18.4134 397.438 18.2955 398.038 18.0597 398.547C17.8239 399.053 17.4972 399.445 17.0795 399.723C16.6619 399.999 16.1804 400.136 15.6349 400.136C15.2145 400.136 14.8778 400.067 14.625 399.928C14.3722 399.786 14.1776 399.625 14.0412 399.446C13.9048 399.264 13.7997 399.114 13.7259 398.994H13.6065V400H12.6349ZM13.6236 396.727C13.6236 397.222 13.696 397.658 13.8409 398.036C13.9858 398.411 14.1974 398.705 14.4759 398.918C14.7543 399.128 15.0952 399.233 15.4986 399.233C15.919 399.233 16.2699 399.122 16.5511 398.901C16.8352 398.676 17.0483 398.375 17.1903 397.997C17.3352 397.616 17.4077 397.193 17.4077 396.727C17.4077 396.267 17.3366 395.852 17.1946 395.483C17.0554 395.111 16.8438 394.817 16.5597 394.601C16.2784 394.382 15.9247 394.273 15.4986 394.273C15.0895 394.273 14.7457 394.376 14.4673 394.584C14.1889 394.788 13.9787 395.075 13.8366 395.445C13.6946 395.811 13.6236 396.239 13.6236 396.727ZM21.8778 400.153C21.4631 400.153 21.0866 400.075 20.7486 399.919C20.4105 399.76 20.142 399.531 19.9432 399.233C19.7443 398.932 19.6449 398.568 19.6449 398.142C19.6449 397.767 19.7188 397.463 19.8665 397.23C20.0142 396.994 20.2116 396.81 20.4588 396.676C20.706 396.543 20.9787 396.443 21.277 396.378C21.5781 396.31 21.8807 396.256 22.1847 396.216C22.5824 396.165 22.9048 396.126 23.152 396.101C23.402 396.072 23.5838 396.026 23.6974 395.96C23.8139 395.895 23.8722 395.781 23.8722 395.619V395.585C23.8722 395.165 23.7571 394.838 23.527 394.605C23.2997 394.372 22.9545 394.256 22.4915 394.256C22.0114 394.256 21.6349 394.361 21.3622 394.571C21.0895 394.781 20.8977 395.006 20.7869 395.244L19.8324 394.903C20.0028 394.506 20.2301 394.196 20.5142 393.974C20.8011 393.75 21.1136 393.594 21.4517 393.506C21.7926 393.415 22.1278 393.369 22.4574 393.369C22.6676 393.369 22.9091 393.395 23.1818 393.446C23.4574 393.494 23.723 393.595 23.9787 393.749C24.2372 393.902 24.4517 394.134 24.6222 394.443C24.7926 394.753 24.8778 395.168 24.8778 395.688V400H23.8722V399.114H23.821C23.7528 399.256 23.6392 399.408 23.4801 399.57C23.321 399.732 23.1094 399.869 22.8452 399.983C22.581 400.097 22.2585 400.153 21.8778 400.153ZM22.0312 399.25C22.429 399.25 22.7642 399.172 23.0369 399.016C23.3125 398.859 23.5199 398.658 23.6591 398.411C23.8011 398.163 23.8722 397.903 23.8722 397.631V396.71C23.8295 396.761 23.7358 396.808 23.5909 396.851C23.4489 396.891 23.2841 396.926 23.0966 396.957C22.9119 396.986 22.7315 397.011 22.5554 397.034C22.3821 397.054 22.2415 397.071 22.1335 397.085C21.8722 397.119 21.6278 397.175 21.4006 397.251C21.1761 397.325 20.9943 397.437 20.8551 397.588C20.7188 397.736 20.6506 397.937 20.6506 398.193C20.6506 398.543 20.7798 398.807 21.0384 398.986C21.2997 399.162 21.6307 399.25 22.0312 399.25ZM27.0714 396.318C27.0714 395.244 27.2106 394.257 27.489 393.357C27.7702 392.453 28.1708 391.622 28.6907 390.864H29.5771C29.3725 391.145 29.1808 391.491 29.0018 391.903C28.8256 392.312 28.6708 392.763 28.5373 393.254C28.4038 393.743 28.2987 394.249 28.2219 394.771C28.1481 395.294 28.1112 395.81 28.1112 396.318C28.1112 396.994 28.1765 397.68 28.3072 398.376C28.4379 399.072 28.614 399.719 28.8356 400.315C29.0572 400.912 29.3043 401.398 29.5771 401.773H28.6907C28.1708 401.014 27.7702 400.185 27.489 399.284C27.2106 398.381 27.0714 397.392 27.0714 396.318ZM34.1122 391.273V400H33.0554V392.381H33.0043L30.8736 393.795V392.722L33.0554 391.273H34.1122ZM39.4688 400.119C38.8267 400.119 38.2798 399.945 37.8281 399.595C37.3764 399.243 37.0313 398.733 36.7926 398.065C36.554 397.395 36.4347 396.585 36.4347 395.636C36.4347 394.693 36.554 393.888 36.7926 393.22C37.0341 392.55 37.3807 392.038 37.8324 391.686C38.2869 391.331 38.8324 391.153 39.4688 391.153C40.1051 391.153 40.6491 391.331 41.1009 391.686C41.5554 392.038 41.902 392.55 42.1406 393.22C42.3821 393.888 42.5028 394.693 42.5028 395.636C42.5028 396.585 42.3835 397.395 42.1449 398.065C41.9062 398.733 41.5611 399.243 41.1094 399.595C40.6577 399.945 40.1108 400.119 39.4688 400.119ZM39.4688 399.182C40.1051 399.182 40.5994 398.875 40.9517 398.261C41.304 397.648 41.4801 396.773 41.4801 395.636C41.4801 394.881 41.3991 394.237 41.2372 393.706C41.0781 393.175 40.848 392.77 40.5469 392.491C40.2486 392.213 39.8892 392.074 39.4688 392.074C38.8381 392.074 38.3452 392.385 37.9901 393.007C37.6349 393.626 37.4574 394.503 37.4574 395.636C37.4574 396.392 37.5369 397.034 37.696 397.562C37.8551 398.091 38.0838 398.493 38.3821 398.768C38.6832 399.044 39.0455 399.182 39.4688 399.182ZM45.3345 398.807L45.2663 399.267C45.218 399.591 45.1442 399.938 45.0447 400.307C44.9482 400.676 44.8473 401.024 44.7422 401.351C44.6371 401.678 44.5504 401.938 44.4822 402.131H43.7152C43.7521 401.949 43.8004 401.709 43.8601 401.411C43.9197 401.112 43.9794 400.778 44.0391 400.409C44.1016 400.043 44.1527 399.668 44.1925 399.284L44.2436 398.807H45.3345ZM50.8285 400L54.7319 392.278V392.21H50.2319V391.273H55.8228V392.261L51.9364 400H50.8285ZM60.0213 400.119C59.5213 400.119 59.071 400.02 58.6705 399.821C58.2699 399.622 57.9489 399.349 57.7074 399.003C57.4659 398.656 57.3338 398.261 57.3111 397.818H58.3338C58.3736 398.213 58.5526 398.54 58.8707 398.798C59.1918 399.054 59.5753 399.182 60.0213 399.182C60.3793 399.182 60.6974 399.098 60.9759 398.93C61.2571 398.763 61.4773 398.533 61.6364 398.24C61.7983 397.945 61.8793 397.611 61.8793 397.239C61.8793 396.858 61.7955 396.518 61.6278 396.22C61.4631 395.919 61.2358 395.682 60.946 395.509C60.6563 395.335 60.3253 395.247 59.9531 395.244C59.6861 395.241 59.4119 395.283 59.1307 395.368C58.8494 395.45 58.6179 395.557 58.4361 395.688L57.4474 395.568L57.9759 391.273H62.5099V392.21H58.8622L58.5554 394.784H58.6065C58.7855 394.642 59.0099 394.524 59.2798 394.43C59.5497 394.337 59.831 394.29 60.1236 394.29C60.6577 394.29 61.1335 394.418 61.5511 394.673C61.9716 394.926 62.3011 395.273 62.5398 395.713C62.7812 396.153 62.902 396.656 62.902 397.222C62.902 397.778 62.777 398.276 62.527 398.713C62.2798 399.148 61.9389 399.491 61.5043 399.744C61.0696 399.994 60.5753 400.119 60.0213 400.119ZM65.7837 398.807L65.7156 399.267C65.6673 399.591 65.5934 399.938 65.494 400.307C65.3974 400.676 65.2965 401.024 65.1914 401.351C65.0863 401.678 64.9996 401.938 64.9315 402.131H64.1644C64.2013 401.949 64.2496 401.709 64.3093 401.411C64.369 401.112 64.4286 400.778 64.4883 400.409C64.5508 400.043 64.6019 399.668 64.6417 399.284L64.6928 398.807H65.7837ZM73.9027 400.119C73.5447 400.114 73.1868 400.045 72.8288 399.915C72.4709 399.784 72.1442 399.564 71.8487 399.254C71.5533 398.942 71.3161 398.52 71.1371 397.989C70.9581 397.455 70.8686 396.784 70.8686 395.977C70.8686 395.205 70.9411 394.52 71.0859 393.923C71.2308 393.324 71.4411 392.82 71.7166 392.411C71.9922 391.999 72.3246 391.686 72.7138 391.473C73.1058 391.26 73.5476 391.153 74.0391 391.153C74.5277 391.153 74.9624 391.251 75.343 391.447C75.7266 391.641 76.0391 391.911 76.2805 392.257C76.522 392.604 76.6783 393.003 76.7493 393.455H75.7095C75.6129 393.062 75.4254 392.737 75.147 392.479C74.8686 392.22 74.4993 392.091 74.0391 392.091C73.3629 392.091 72.8303 392.385 72.4411 392.973C72.0547 393.561 71.8601 394.386 71.8572 395.449H71.9254C72.0845 395.207 72.2734 395.001 72.4922 394.831C72.7138 394.658 72.9581 394.524 73.2251 394.43C73.4922 394.337 73.7749 394.29 74.0732 394.29C74.5732 394.29 75.0305 394.415 75.4453 394.665C75.8601 394.912 76.1925 395.254 76.4425 395.692C76.6925 396.126 76.8175 396.625 76.8175 397.188C76.8175 397.727 76.6967 398.222 76.4553 398.67C76.2138 399.116 75.8743 399.472 75.4368 399.736C75.0021 399.997 74.4908 400.125 73.9027 400.119ZM73.9027 399.182C74.2607 399.182 74.5817 399.092 74.8658 398.913C75.1527 398.734 75.3786 398.494 75.5433 398.193C75.7109 397.892 75.7947 397.557 75.7947 397.188C75.7947 396.827 75.7138 396.499 75.5518 396.203C75.3928 395.905 75.1726 395.668 74.8913 395.491C74.6129 395.315 74.2947 395.227 73.9368 395.227C73.6669 395.227 73.4155 395.281 73.1825 395.389C72.9496 395.494 72.745 395.639 72.5689 395.824C72.3956 396.009 72.2592 396.22 72.1598 396.459C72.0604 396.695 72.0107 396.943 72.0107 397.205C72.0107 397.551 72.0916 397.875 72.2536 398.176C72.4183 398.477 72.6428 398.72 72.9268 398.905C73.2138 399.089 73.5391 399.182 73.9027 399.182ZM81.391 400.119C81.033 400.114 80.6751 400.045 80.3171 399.915C79.9592 399.784 79.6325 399.564 79.337 399.254C79.0415 398.942 78.8043 398.52 78.6254 397.989C78.4464 397.455 78.3569 396.784 78.3569 395.977C78.3569 395.205 78.4293 394.52 78.5742 393.923C78.7191 393.324 78.9293 392.82 79.2049 392.411C79.4805 391.999 79.8129 391.686 80.2021 391.473C80.5941 391.26 81.0359 391.153 81.5273 391.153C82.016 391.153 82.4506 391.251 82.8313 391.447C83.2148 391.641 83.5273 391.911 83.7688 392.257C84.0103 392.604 84.1665 393.003 84.2376 393.455H83.1978C83.1012 393.062 82.9137 392.737 82.6353 392.479C82.3569 392.22 81.9876 392.091 81.5273 392.091C80.8512 392.091 80.3185 392.385 79.9293 392.973C79.543 393.561 79.3484 394.386 79.3455 395.449H79.4137C79.5728 395.207 79.7617 395.001 79.9805 394.831C80.2021 394.658 80.4464 394.524 80.7134 394.43C80.9805 394.337 81.2631 394.29 81.5614 394.29C82.0614 394.29 82.5188 394.415 82.9336 394.665C83.3484 394.912 83.6808 395.254 83.9308 395.692C84.1808 396.126 84.3058 396.625 84.3058 397.188C84.3058 397.727 84.185 398.222 83.9435 398.67C83.7021 399.116 83.3626 399.472 82.9251 399.736C82.4904 399.997 81.979 400.125 81.391 400.119ZM81.391 399.182C81.7489 399.182 82.07 399.092 82.354 398.913C82.641 398.734 82.8668 398.494 83.0316 398.193C83.1992 397.892 83.283 397.557 83.283 397.188C83.283 396.827 83.2021 396.499 83.0401 396.203C82.881 395.905 82.6609 395.668 82.3796 395.491C82.1012 395.315 81.783 395.227 81.4251 395.227C81.1552 395.227 80.9038 395.281 80.6708 395.389C80.4379 395.494 80.2333 395.639 80.0572 395.824C79.8839 396.009 79.7475 396.22 79.6481 396.459C79.5487 396.695 79.4989 396.943 79.4989 397.205C79.4989 397.551 79.5799 397.875 79.7418 398.176C79.9066 398.477 80.131 398.72 80.4151 398.905C80.7021 399.089 81.0273 399.182 81.391 399.182ZM87.0884 398.807L87.0202 399.267C86.9719 399.591 86.8981 399.938 86.7987 400.307C86.7021 400.676 86.6012 401.024 86.4961 401.351C86.391 401.678 86.3043 401.938 86.2362 402.131H85.4691C85.506 401.949 85.5543 401.709 85.614 401.411C85.6737 401.112 85.7333 400.778 85.793 400.409C85.8555 400.043 85.9066 399.668 85.9464 399.284L85.9975 398.807H87.0884ZM95.1562 400.119C94.5142 400.119 93.9673 399.945 93.5156 399.595C93.0639 399.243 92.7188 398.733 92.4801 398.065C92.2415 397.395 92.1222 396.585 92.1222 395.636C92.1222 394.693 92.2415 393.888 92.4801 393.22C92.7216 392.55 93.0682 392.038 93.5199 391.686C93.9744 391.331 94.5199 391.153 95.1562 391.153C95.7926 391.153 96.3366 391.331 96.7884 391.686C97.2429 392.038 97.5895 392.55 97.8281 393.22C98.0696 393.888 98.1903 394.693 98.1903 395.636C98.1903 396.585 98.071 397.395 97.8324 398.065C97.5938 398.733 97.2486 399.243 96.7969 399.595C96.3452 399.945 95.7983 400.119 95.1562 400.119ZM95.1562 399.182C95.7926 399.182 96.2869 398.875 96.6392 398.261C96.9915 397.648 97.1676 396.773 97.1676 395.636C97.1676 394.881 97.0866 394.237 96.9247 393.706C96.7656 393.175 96.5355 392.77 96.2344 392.491C95.9361 392.213 95.5767 392.074 95.1562 392.074C94.5256 392.074 94.0327 392.385 93.6776 393.007C93.3224 393.626 93.1449 394.503 93.1449 395.636C93.1449 396.392 93.2244 397.034 93.3835 397.562C93.5426 398.091 93.7713 398.493 94.0696 398.768C94.3707 399.044 94.733 399.182 95.1562 399.182ZM100.255 400.068C100.045 400.068 99.8643 399.993 99.7138 399.842C99.5632 399.692 99.4879 399.511 99.4879 399.301C99.4879 399.091 99.5632 398.911 99.7138 398.76C99.8643 398.609 100.045 398.534 100.255 398.534C100.465 398.534 100.646 398.609 100.796 398.76C100.947 398.911 101.022 399.091 101.022 399.301C101.022 399.44 100.987 399.568 100.915 399.685C100.847 399.801 100.755 399.895 100.638 399.966C100.525 400.034 100.397 400.068 100.255 400.068ZM102.907 400L106.81 392.278V392.21H102.31V391.273H107.901V392.261L104.015 400H102.907ZM112.239 400.119C111.676 400.119 111.175 400.023 110.735 399.83C110.297 399.636 109.949 399.368 109.691 399.024C109.435 398.678 109.296 398.276 109.273 397.818H110.347C110.37 398.099 110.466 398.342 110.637 398.547C110.807 398.749 111.03 398.905 111.306 399.016C111.581 399.126 111.887 399.182 112.222 399.182C112.597 399.182 112.929 399.116 113.219 398.986C113.509 398.855 113.736 398.673 113.901 398.44C114.066 398.207 114.148 397.938 114.148 397.631C114.148 397.31 114.069 397.027 113.909 396.783C113.75 396.536 113.517 396.342 113.211 396.203C112.904 396.064 112.529 395.994 112.086 395.994H111.387V395.057H112.086C112.432 395.057 112.736 394.994 112.998 394.869C113.262 394.744 113.468 394.568 113.615 394.341C113.766 394.114 113.841 393.847 113.841 393.54C113.841 393.244 113.776 392.987 113.645 392.768C113.515 392.55 113.33 392.379 113.091 392.257C112.855 392.135 112.577 392.074 112.256 392.074C111.955 392.074 111.671 392.129 111.404 392.24C111.14 392.348 110.924 392.506 110.756 392.713C110.588 392.918 110.498 393.165 110.483 393.455H109.461C109.478 392.997 109.615 392.597 109.874 392.253C110.132 391.906 110.471 391.636 110.888 391.443C111.309 391.25 111.77 391.153 112.273 391.153C112.813 391.153 113.276 391.263 113.662 391.482C114.049 391.697 114.346 391.983 114.553 392.338C114.76 392.693 114.864 393.077 114.864 393.489C114.864 393.98 114.735 394.399 114.476 394.746C114.221 395.092 113.873 395.332 113.432 395.466V395.534C113.983 395.625 114.414 395.859 114.723 396.237C115.033 396.612 115.188 397.077 115.188 397.631C115.188 398.105 115.059 398.531 114.8 398.909C114.544 399.284 114.195 399.58 113.752 399.795C113.309 400.011 112.804 400.119 112.239 400.119ZM119.709 391.153C120.067 391.156 120.425 391.224 120.783 391.358C121.141 391.491 121.468 391.713 121.763 392.023C122.059 392.33 122.296 392.749 122.475 393.28C122.654 393.811 122.743 394.477 122.743 395.278C122.743 396.054 122.669 396.743 122.522 397.345C122.377 397.945 122.167 398.45 121.891 398.862C121.618 399.274 121.286 399.587 120.894 399.8C120.505 400.013 120.064 400.119 119.573 400.119C119.084 400.119 118.648 400.023 118.265 399.83C117.884 399.634 117.571 399.362 117.327 399.016C117.086 398.666 116.931 398.261 116.863 397.801H117.902C117.996 398.202 118.182 398.533 118.461 398.794C118.742 399.053 119.113 399.182 119.573 399.182C120.246 399.182 120.777 398.888 121.167 398.3C121.559 397.712 121.755 396.881 121.755 395.807H121.686C121.527 396.045 121.338 396.251 121.12 396.425C120.901 396.598 120.658 396.732 120.391 396.825C120.124 396.919 119.84 396.966 119.539 396.966C119.039 396.966 118.58 396.842 118.162 396.595C117.748 396.345 117.415 396.003 117.165 395.568C116.918 395.131 116.794 394.631 116.794 394.068C116.794 393.534 116.914 393.045 117.152 392.602C117.394 392.156 117.732 391.801 118.167 391.537C118.604 391.273 119.118 391.145 119.709 391.153ZM119.709 392.091C119.351 392.091 119.029 392.18 118.742 392.359C118.458 392.536 118.232 392.774 118.064 393.075C117.9 393.374 117.817 393.705 117.817 394.068C117.817 394.432 117.897 394.763 118.056 395.061C118.218 395.357 118.438 395.592 118.716 395.768C118.998 395.942 119.317 396.028 119.675 396.028C119.945 396.028 120.196 395.976 120.429 395.871C120.662 395.763 120.865 395.616 121.039 395.432C121.215 395.244 121.353 395.033 121.452 394.797C121.551 394.558 121.601 394.31 121.601 394.051C121.601 393.71 121.519 393.391 121.354 393.092C121.192 392.794 120.968 392.553 120.681 392.368C120.397 392.183 120.073 392.091 119.709 392.091ZM126.584 395.636C126.584 396.71 126.443 397.699 126.162 398.602C125.884 399.503 125.484 400.332 124.964 401.091H124.078C124.283 400.81 124.473 400.463 124.649 400.051C124.828 399.642 124.984 399.193 125.118 398.705C125.251 398.213 125.355 397.706 125.429 397.183C125.506 396.658 125.544 396.142 125.544 395.636C125.544 394.96 125.479 394.274 125.348 393.578C125.217 392.882 125.041 392.236 124.82 391.639C124.598 391.043 124.351 390.557 124.078 390.182H124.964C125.484 390.94 125.884 391.771 126.162 392.675C126.443 393.575 126.584 394.562 126.584 395.636Z" fill="#0A4B42" fill-opacity="0.01"/>
</svg>
